# xmcd
#
# Track frame offsets: 
#        150
#        12285
#        29997
#        51500
#        69815
#        92750
#        105452
#        129735
#        148740
#        167775
#        184770
#        207752
#        221232
#        242610
#        260897
#
# Disc length: 3748 seconds
#
# Revision: 2
# Processed by: cddbd v1.5.2PL0 Copyright (c) Steve Scherf et al.
# Submitted via: ExactAudioCopyFreeDBPlugin 1.0
#
DISCID=e70ea20f
DTITLE=Brownie McGhee - The Best Of Brownie McGhee
DYEAR=1999
DGENRE=Blues
TTITLE0=Death Of Blind Boy Fuller
TTITLE1=My Last Suit
TTITLE2=Howdy Blues
TTITLE3=Worried Life Blues
TTITLE4=Southern Train
TTITLE5=I Can't Sleep At Night
TTITLE6=Key To The Highway
TTITLE7=In The Evening
TTITLE8=We Have No Friends
TTITLE9=Sporting Life Blues
TTITLE10=Tennessee Blues
TTITLE11=Hard To Forget To Love
TTITLE12=Words To A Son
TTITLE13=Driving Her Right To Someone Else
TTITLE14=Finding My Way Home
EXTD=
EXTT0=
EXTT1=
EXTT2=
EXTT3=
EXTT4=
EXTT5=
EXTT6=
EXTT7=
EXTT8=
EXTT9=
EXTT10=
EXTT11=
EXTT12=
EXTT13=
EXTT14=
PLAYORDER=
